<svg xmlns="http://www.w3.org/2000/svg" xmlns:xlink="http://www.w3.org/1999/xlink" id="iu" viewBox="0 0 512 512"><defs><linearGradient id="b" x1="146" x2="230" y1="115.2" y2="260.8" gradientUnits="userSpaceOnUse"><stop offset="0" stop-color="#fbbf24"/><stop offset="1" stop-color="#f8af18"/></linearGradient><clipPath id="iv"><path fill="none" d="M64 64h384v192H328a72 72 0 00-72 72v120H64V64Z"/></clipPath><symbol id="a" viewBox="0 0 376 376"><g stroke-miterlimit="10"><circle cx="188" cy="188" r="84" fill="url(#b)" stroke="#f8af18" stroke-width="4"/><path fill="none" stroke="#fbbf24" stroke-linecap="round" stroke-width="16" d="M188 57.7V8m0 360v-49.7m92.2-222.5 35-35M60.8 315.2l35.1-35.1m0-184.4-35-35m254.5 254.5-35.1-35.1M57.7 188H8m360 0h-49.7"><animateTransform additive="sum" attributeName="transform" dur="6s" repeatCount="indefinite" type="rotate" values="0 192 192; 45 192 192"/></path></g></symbol></defs><g clip-path="url(#iv)"><use xlink:href="#a" width="376" height="376" transform="translate(68 68)"/><path fill="none" stroke="#f8af18" stroke-miterlimit="10" stroke-width="6" d="M254 338v-10a74 74 0 0174-74h10"/></g><rect width="144" height="144" x="280" y="280" fill="#9936d4" rx="48" ry="48"/><g fill="#fff"><path d="M319 383.3h-15.6v-37.4h-14.8v-10.5h2.5c4.3 0 7.7-1 10.3-2.8a13 13 0 004.6-8.5l.2-.7H319v59.9Zm37.7 0H341v-37.4h-14.8v-10.5h2.5c4.4 0 7.8-1 10.3-2.8a13 13 0 004.6-8.5l.2-.7h13v59.9Zm41-32.1H415v11h-17.3V380H386v-17.6h-17.2v-11.1H386v-17.7h11.8v17.7Z"/></g></svg>